<svg width="29" height="32" viewBox="0 0 29 32" fill="none" xmlns="http://www.w3.org/2000/svg">
<path d="M15.9451 15.4994L13.0694 14.1955L13.0802 13.1705C13.0802 12.4787 12.4717 11.8884 11.2548 11.4067C10.4109 11.0734 9.48732 10.9105 8.48044 10.9105C7.47356 10.9105 6.54998 11.0771 5.70609 11.4067C4.48913 11.8992 3.88066 12.486 3.88066 13.1705V26.5859C3.88066 27.2777 4.48913 27.8681 5.70609 28.3498C6.54998 28.683 7.47356 28.846 8.48044 28.846C9.48732 28.846 10.4109 28.6794 11.2548 28.3498C12.4717 27.8572 13.0802 27.2705 13.0802 26.5859V22.9677H13.2323L16.0972 24.3259V26.5859C16.0972 28.4259 14.9564 29.8167 12.6746 30.762C11.3997 31.2944 10.0016 31.5624 8.48406 31.5624C6.9665 31.5624 5.56845 31.2944 4.29355 30.762C2.01177 29.813 0.87088 28.4222 0.87088 26.5823V13.1669C0.87088 11.327 2.01177 9.93617 4.29355 8.99086C5.56845 8.45845 6.9665 8.19043 8.48406 8.19043C10.0016 8.19043 11.3997 8.45845 12.6746 8.99086C14.9564 9.93617 16.0972 11.327 16.0972 13.1669V15.4994H15.9451Z" fill="#81FE88"/>
<path d="M16.0936 24.3223C16.0936 24.3223 13.4967 23.1995 13.0694 21.9102L13.0802 23.4748L16.0936 24.3223Z" fill="#81FE88"/>
<path d="M13.0259 16.1043L15.9017 17.4082L15.8908 18.4332C15.8908 19.125 16.4993 19.7153 17.7162 20.197C18.5601 20.5303 19.4837 20.6932 20.4906 20.6932C21.4938 20.6932 22.421 20.5266 23.2649 20.197C24.4819 19.7045 25.0904 19.1177 25.0904 18.4332V5.02138C25.0904 4.3296 24.4819 3.73924 23.2649 3.25753C22.421 2.92431 21.4975 2.76133 20.4906 2.76133C19.4873 2.76133 18.5601 2.92793 17.7162 3.25753C16.4993 3.7501 15.8908 4.33684 15.8908 5.02138V8.63963H15.7387L12.8738 7.28143V5.02138C12.8738 3.18147 14.0147 1.79067 16.2965 0.845356C17.5714 0.31294 18.9694 0.0449219 20.487 0.0449219C22.0045 0.0449219 23.4026 0.31294 24.6775 0.845356C26.9593 1.79067 28.1001 3.18147 28.1001 5.02138V18.4368C28.1001 20.2767 26.9593 21.6675 24.6775 22.6128C23.4026 23.1452 22.0045 23.4133 20.487 23.4133C18.9694 23.4133 17.5714 23.1452 16.2965 22.6128C14.0147 21.6675 12.8738 20.2767 12.8738 18.4368V16.1043H13.0259Z" fill="#81FE88"/>
<path d="M12.8774 7.28125C12.8774 7.28125 15.4743 8.40403 15.9017 9.69342L15.8908 8.12877L12.8774 7.28125Z" fill="#81FE88"/>
</svg>
